<svg width="35" height="16" viewBox="0 0 35 16" fill="none" xmlns="http://www.w3.org/2000/svg">
<path d="M2.40234 9.89258C2.40234 11.0124 2.63997 11.9499 3.11523 12.7051C3.59049 13.4603 4.35221 13.8379 5.40039 13.8379C6.21419 13.8379 6.88151 13.4896 7.40234 12.793C7.92969 12.0898 8.19336 11.084 8.19336 9.77539C8.19336 8.45378 7.92318 7.47721 7.38281 6.8457C6.84245 6.20768 6.17513 5.88867 5.38086 5.88867C4.49544 5.88867 3.77604 6.22721 3.22266 6.9043C2.67578 7.58138 2.40234 8.57747 2.40234 9.89258ZM5.04883 4.35547C5.84961 4.35547 6.52018 4.52474 7.06055 4.86328C7.37305 5.05859 7.72786 5.40039 8.125 5.88867V0.605469H9.81445V15H8.23242V13.5449C7.82227 14.1895 7.33724 14.6549 6.77734 14.9414C6.21745 15.2279 5.57617 15.3711 4.85352 15.3711C3.68815 15.3711 2.67904 14.8828 1.82617 13.9062C0.973307 12.9232 0.546875 11.6178 0.546875 9.99023C0.546875 8.4668 0.934245 7.14844 1.70898 6.03516C2.49023 4.91536 3.60352 4.35547 5.04883 4.35547ZM16.8457 6.23047C17.4642 5.79427 17.8906 5.43945 18.125 5.16602C18.5091 4.72331 18.7012 4.23177 18.7012 3.69141C18.7012 3.26823 18.5612 2.90365 18.2812 2.59766C18.0013 2.29167 17.6237 2.13867 17.1484 2.13867C16.4258 2.13867 15.9245 2.37956 15.6445 2.86133C15.5013 3.10872 15.4297 3.37891 15.4297 3.67188C15.4297 4.06901 15.5371 4.44987 15.752 4.81445C15.9733 5.17904 16.3379 5.65104 16.8457 6.23047ZM16.3965 13.7891C17.1191 13.7891 17.7409 13.623 18.2617 13.291C18.7826 12.959 19.1829 12.5879 19.4629 12.1777L16.2207 8.22266C15.3027 8.83464 14.7038 9.30339 14.4238 9.62891C13.9941 10.1172 13.7793 10.7129 13.7793 11.416C13.7793 12.1777 14.056 12.7637 14.6094 13.1738C15.1693 13.584 15.765 13.7891 16.3965 13.7891ZM15.2441 7.02148C14.6387 6.32487 14.2318 5.73893 14.0234 5.26367C13.8216 4.78841 13.7207 4.32943 13.7207 3.88672C13.7207 2.96224 14.0332 2.19727 14.6582 1.5918C15.2832 0.979818 16.1198 0.673828 17.168 0.673828C18.1641 0.673828 18.9421 0.957031 19.502 1.52344C20.0618 2.08984 20.3418 2.76693 20.3418 3.55469C20.3418 4.47266 20.0521 5.27669 19.4727 5.9668C19.1341 6.37044 18.5677 6.83594 17.7734 7.36328L20.3906 10.4883C20.5664 9.96745 20.6868 9.58008 20.752 9.32617C20.8236 9.06576 20.8952 8.70443 20.9668 8.24219H22.6367C22.526 9.16016 22.3047 10.0423 21.9727 10.8887C21.6406 11.7285 21.4746 12.0671 21.4746 11.9043L24.0234 15H21.7578L20.4102 13.3594C19.8763 13.9388 19.388 14.362 18.9453 14.6289C18.1706 15.0977 17.2786 15.332 16.2695 15.332C14.7786 15.332 13.6947 14.9316 13.0176 14.1309C12.3405 13.3236 12.002 12.4154 12.002 11.4062C12.002 10.319 12.3307 9.41081 12.9883 8.68164C13.3919 8.23893 14.1439 7.68555 15.2441 7.02148ZM29.7949 4.23828C30.9733 4.23828 31.9303 4.52474 32.666 5.09766C33.4082 5.67057 33.8542 6.6569 34.0039 8.05664H32.2949C32.1908 7.41211 31.9531 6.87826 31.582 6.45508C31.2109 6.02539 30.6152 5.81055 29.7949 5.81055C28.6751 5.81055 27.8743 6.35742 27.3926 7.45117C27.0801 8.16081 26.9238 9.03646 26.9238 10.0781C26.9238 11.1263 27.1452 12.0085 27.5879 12.7246C28.0306 13.4408 28.7272 13.7988 29.6777 13.7988C30.4069 13.7988 30.9831 13.5775 31.4062 13.1348C31.8359 12.6855 32.1322 12.0736 32.2949 11.2988H34.0039C33.8086 12.6855 33.3203 13.7012 32.5391 14.3457C31.7578 14.9837 30.7585 15.3027 29.541 15.3027C28.1738 15.3027 27.0833 14.8047 26.2695 13.8086C25.4557 12.806 25.0488 11.556 25.0488 10.0586C25.0488 8.22266 25.4948 6.79362 26.3867 5.77148C27.2786 4.74935 28.4147 4.23828 29.7949 4.23828Z" fill="white"/>
</svg>
