<svg width="66" height="38" viewBox="0 0 66 38" fill="none" xmlns="http://www.w3.org/2000/svg">
<path d="M14.2266 32.9326C15.8376 32.9326 17.1615 32.7651 18.1982 32.4302C20.0485 31.8081 21.5638 30.6118 22.7441 28.8413C23.6852 27.4217 24.3631 25.6034 24.7778 23.3862C25.0171 22.0623 25.1367 20.8341 25.1367 19.7017C25.1367 15.3472 24.2674 11.9657 22.5288 9.55713C20.8062 7.1486 18.0228 5.94434 14.1787 5.94434H5.73291V32.9326H14.2266ZM0.947754 1.85303H15.1836C20.0166 1.85303 23.765 3.56771 26.4287 6.99707C28.8053 10.0915 29.9937 14.0552 29.9937 18.8882C29.9937 22.6206 29.2918 25.9941 27.8882 29.0088C25.4159 34.3363 21.165 37 15.1357 37H0.947754V1.85303ZM50.9526 0.895996C55.4028 0.895996 58.8561 2.06836 61.3125 4.41309C63.7689 6.75781 65.1326 9.42155 65.4038 12.4043H60.7622C60.2358 10.1393 59.1831 8.34489 57.604 7.021C56.0409 5.6971 53.8397 5.03516 51.0005 5.03516C47.5392 5.03516 44.7399 6.25537 42.6025 8.6958C40.4811 11.1203 39.4204 14.8447 39.4204 19.8691C39.4204 23.9844 40.3774 27.326 42.2915 29.894C44.2215 32.4461 47.0926 33.7222 50.9048 33.7222C54.4139 33.7222 57.0856 32.3743 58.9199 29.6787C59.8929 28.2591 60.6187 26.3929 61.0972 24.0801H65.7388C65.3241 27.7806 63.9523 30.883 61.6235 33.3872C58.8322 36.4019 55.0679 37.9092 50.3306 37.9092C46.2472 37.9092 42.8179 36.673 40.0425 34.2007C36.3898 30.9308 34.5635 25.8825 34.5635 19.0557C34.5635 13.8717 35.9352 9.62093 38.6787 6.30322C41.6455 2.6984 45.7368 0.895996 50.9526 0.895996Z" fill="white"/>
</svg>
