<svg width="0" height="0" class="hidden">
  <symbol fill="none" xmlns="http://www.w3.org/2000/svg" viewBox="0 0 77 19" id="adobe">
    <path fill-rule="evenodd" clip-rule="evenodd" d="M30.4603 13.2772L29.4117 18.157H27L30.9846 0.47189H33.8415L37.5902 18.157H35.1522L34.1299 13.2772H30.4603ZM33.8415 11.3091L33.0289 7.08402C32.7929 5.87696 32.557 4.30341 32.3739 3.04344H32.2687C32.0856 4.32922 31.8226 5.95568 31.5875 7.08402L30.7487 11.3091H33.8415ZM46.7958 0V14.8774C46.7958 15.8487 46.8482 17.2657 46.9002 18.1574H44.7773L44.62 16.6097H44.5414C44.1219 17.5014 43.152 18.3678 41.8679 18.3678C39.5086 18.3678 38.0668 15.7958 38.0668 11.8344C38.0668 7.32106 39.9801 5.19559 41.999 5.19559C43.0209 5.19559 43.8336 5.66835 44.2792 6.6388H44.3316V0H46.7958ZM44.3312 10.2595C44.3312 10.0238 44.3312 9.73517 44.305 9.47189C44.1739 8.31775 43.5186 7.32062 42.6277 7.32062C41.0806 7.32062 40.5568 9.47189 40.5568 11.834C40.5568 14.458 41.2383 16.2944 42.5491 16.2944C43.0996 16.2944 43.8331 16.0057 44.2526 14.4842C44.305 14.2743 44.3312 13.959 44.3312 13.6712V10.2595ZM52.6652 18.3674C50.1228 18.3674 48.2874 16.1894 48.2874 11.8082C48.2874 7.16317 50.4627 5.19515 52.7958 5.19515C55.3124 5.19515 57.1208 7.45182 57.1208 11.7552C57.1208 16.8196 54.6304 18.3674 52.691 18.3674H52.6652ZM52.7434 16.426C54.2634 16.426 54.6046 13.7233 54.6046 11.7819C54.6046 9.86593 54.2638 7.13737 52.6914 7.13737C51.0657 7.13737 50.7515 9.86593 50.7515 11.7819C50.7515 13.9069 51.1185 16.426 52.7176 16.426H52.7434ZM58.6062 0H61.07V6.84829H61.1224C61.7777 5.69415 62.669 5.19515 63.7962 5.19515C65.9716 5.19515 67.3352 7.66174 67.3352 11.5716C67.3352 16.1369 65.474 18.3674 63.3768 18.3674C62.1185 18.3674 61.4107 17.6847 60.8598 16.5563H60.7558L60.6243 18.157H58.5014C58.5538 17.2915 58.6062 15.8483 58.6062 14.877V0ZM61.07 13.6437C61.07 13.9332 61.0962 14.2218 61.1748 14.4313C61.5676 15.9799 62.3282 16.2944 62.8259 16.2944C64.2939 16.2944 64.8444 14.353 64.8444 11.729C64.8444 9.28864 64.2681 7.32062 62.7997 7.32062C61.987 7.32062 61.3317 8.29151 61.1482 9.20992C61.0957 9.47233 61.0695 9.81389 61.0695 10.0759V13.6437H61.07ZM70.9711 12.2796C70.9973 15.5596 72.4125 16.3727 73.9067 16.3727C74.798 16.3727 75.5582 16.1632 76.1087 15.9003L76.4757 17.6847C75.7155 18.0783 74.5621 18.2886 73.4348 18.2886C70.2371 18.2886 68.5594 15.8745 68.5594 11.9385C68.5594 7.76627 70.4726 5.19471 73.1203 5.19471C75.7679 5.19471 77 7.74003 77 10.9418C77 11.5711 76.9733 11.9652 76.9476 12.3058L70.9711 12.2796ZM74.6669 10.5219C74.6931 8.26527 73.9067 7.05865 72.9372 7.05865C71.6523 7.05865 71.0756 8.92172 70.9973 10.5219H74.6669Z" fill="white"></path>
    <path fill-rule="evenodd" clip-rule="evenodd" d="M12.6067 1.02026H20V18.3678L12.6067 1.02026ZM7.39852 1.02026H0V18.3678L7.39852 1.02026ZM10.0031 7.41343L14.7137 18.3678H11.6268L10.2181 14.8789H6.77009L10.0031 7.41343Z" fill="#CC2131"></path>
  </symbol>
  <symbol fill="none" xmlns="http://www.w3.org/2000/svg" viewBox="0 0 82 25" id="amazon">
    <g clip-path="url(#clip0_73:538)">
      <path fill-rule="evenodd" clip-rule="evenodd" d="M50.8712 19.5508C46.106 23.1042 39.1992 25 33.2526 25C24.9145 25 17.408 21.88 11.7291 16.6908C11.2829 16.2827 11.6827 15.7266 12.2181 16.0444C18.3468 19.6519 25.9246 21.8222 33.7523 21.8222C39.0315 21.8222 44.8389 20.7172 50.1787 18.4241C50.9854 18.0775 51.66 18.9586 50.8712 19.5508Z" fill="#FF9900"></path>
      <path fill-rule="evenodd" clip-rule="evenodd" d="M52.8522 17.2577C52.2454 16.4705 48.8259 16.8858 47.2911 17.0699C46.8235 17.1277 46.7521 16.716 47.1733 16.4199C49.8967 14.4807 54.3656 15.0405 54.8867 15.6905C55.4079 16.3441 54.7511 20.8761 52.1918 23.0391C51.7992 23.3714 51.4244 23.1944 51.5993 22.7539C52.174 21.3022 53.4626 18.0485 52.8522 17.2577Z" fill="#FF9900"></path>
      <path fill-rule="evenodd" clip-rule="evenodd" d="M47.3981 2.73004V0.845018C47.3981 0.559738 47.6123 0.368347 47.8693 0.368347H56.211C56.4787 0.368347 56.6929 0.563349 56.6929 0.845018V2.4592C56.6893 2.73004 56.4644 3.08393 56.0646 3.64366L51.7421 9.88733C53.3483 9.84761 55.0438 10.0896 56.5001 10.9201C56.8285 11.1079 56.9177 11.3823 56.9427 11.6532V13.6646C56.9427 13.939 56.6429 14.2604 56.3288 14.0943C53.7624 12.7329 50.3536 12.5849 47.5159 14.1088C47.2268 14.2677 46.9234 13.9499 46.9234 13.6754V11.7651C46.9234 11.4582 46.927 10.9346 47.2304 10.4687L52.2382 3.2031H47.88C47.6123 3.2031 47.3981 3.01171 47.3981 2.73004Z" fill="white"></path>
      <path fill-rule="evenodd" clip-rule="evenodd" d="M16.9689 14.4915H14.4311C14.1884 14.4735 13.9956 14.2893 13.9778 14.0546V0.877525C13.9778 0.613911 14.1955 0.404463 14.4668 0.404463H16.8333C17.0796 0.415289 17.2759 0.606687 17.2938 0.845022V2.56754H17.3402C17.9577 0.902801 19.1177 0.126404 20.6811 0.126404C22.2695 0.126404 23.2618 0.902801 23.9757 2.56754C24.5896 0.902801 25.9853 0.126404 27.4809 0.126404C28.5445 0.126404 29.7082 0.570575 30.4185 1.56725C31.2216 2.67587 31.0574 4.28645 31.0574 5.69841L31.0538 14.0149C31.0538 14.2785 30.8361 14.4915 30.5648 14.4915H28.0305C27.7771 14.4735 27.5737 14.2677 27.5737 14.0149V7.03092C27.5737 6.4748 27.6236 5.08812 27.5023 4.56089C27.3131 3.67616 26.7456 3.42699 26.0103 3.42699C25.3963 3.42699 24.7538 3.84227 24.4933 4.50673C24.2327 5.17118 24.2577 6.28341 24.2577 7.03092V14.0149C24.2577 14.2785 24.0399 14.4915 23.7687 14.4915H21.2344C20.9774 14.4735 20.7775 14.2677 20.7775 14.0149L20.7739 7.03092C20.7739 5.56118 21.0131 3.3981 19.2105 3.3981C17.3866 3.3981 17.458 5.50701 17.458 7.03092V14.0149C17.458 14.2785 17.2402 14.4915 16.9689 14.4915" fill="white"></path>
      <path fill-rule="evenodd" clip-rule="evenodd" d="M63.8745 0.126404C67.6402 0.126404 69.6783 3.3981 69.6783 7.55815C69.6783 11.5774 67.426 14.766 63.8745 14.766C60.1766 14.766 58.1634 11.4943 58.1634 7.41731C58.1634 3.31505 60.2016 0.126404 63.8745 0.126404ZM63.8959 2.81671C62.0255 2.81671 61.9077 5.39507 61.9077 7.00203C61.9077 8.6126 61.8827 12.0504 63.8745 12.0504C65.8412 12.0504 65.934 9.27706 65.934 7.58704C65.934 6.4748 65.8876 5.1459 65.5557 4.09144C65.2701 3.17422 64.7026 2.81671 63.8959 2.81671Z" fill="white"></path>
      <path fill-rule="evenodd" clip-rule="evenodd" d="M74.5613 14.4915H72.0342C71.7807 14.4735 71.5773 14.2677 71.5773 14.0149L71.5737 0.834189C71.5951 0.592242 71.8057 0.404463 72.0627 0.404463H74.415C74.6363 0.415289 74.8183 0.566965 74.8683 0.7728V2.78782H74.9147C75.625 0.985857 76.6209 0.126404 78.3734 0.126404C79.5121 0.126404 80.6222 0.541687 81.336 1.6792C81.9999 2.73365 81.9999 4.50673 81.9999 5.78146V14.0763C81.9714 14.3074 81.7608 14.4915 81.5109 14.4915H78.966C78.7339 14.4735 78.5412 14.3002 78.5162 14.0763V6.91897C78.5162 5.47813 78.6804 3.36921 76.9278 3.36921C76.3103 3.36921 75.7428 3.78811 75.4608 4.42367C75.1039 5.22896 75.0575 6.03063 75.0575 6.91897V14.0149C75.0539 14.2785 74.8326 14.4915 74.5613 14.4915" fill="white"></path>
      <path fill-rule="evenodd" clip-rule="evenodd" d="M40.7484 8.19731C40.7484 9.19759 40.7734 10.0318 40.2737 10.9201C39.8703 11.6423 39.2278 12.0865 38.5175 12.0865C37.5431 12.0865 36.972 11.3354 36.972 10.2268C36.972 8.03842 38.9101 7.64119 40.7484 7.64119V8.19731ZM43.3077 14.4554C43.1399 14.6071 42.8972 14.6179 42.708 14.5168C41.8656 13.809 41.7121 13.4804 41.2517 12.8051C39.8596 14.2424 38.8709 14.6721 37.0683 14.6721C34.9303 14.6721 33.2705 13.3396 33.2705 10.6709C33.2705 8.58731 34.3841 7.16813 35.9761 6.47479C37.3539 5.86089 39.2778 5.75256 40.7484 5.58284V5.25061C40.7484 4.64033 40.7948 3.9181 40.4379 3.39087C40.1309 2.91781 39.5384 2.72281 39.0137 2.72281C38.0463 2.72281 37.1861 3.22476 36.9755 4.26477C36.9327 4.49588 36.7649 4.72338 36.5329 4.73422L34.0736 4.46699C33.8666 4.42005 33.6346 4.25032 33.6952 3.92893C34.2592 0.910012 36.9577 0 39.3706 0C40.6056 0 42.219 0.332226 43.1934 1.27835C44.4285 2.44475 44.3107 4.00115 44.3107 5.69478V9.69593C44.3107 10.8984 44.8032 11.4257 45.2673 12.0757C45.4279 12.3068 45.4636 12.5849 45.2566 12.7582C44.739 13.1951 43.8181 14.0076 43.3112 14.4627L43.3077 14.4554" fill="white"></path>
      <path fill-rule="evenodd" clip-rule="evenodd" d="M7.47791 8.19755C7.47791 9.19784 7.50289 10.032 7.00318 10.9204C6.59983 11.6426 5.96091 12.0868 5.24703 12.0868C4.27258 12.0868 3.70504 11.3356 3.70504 10.227C3.70504 8.03866 5.64323 7.64144 7.47791 7.64144V8.19755ZM10.0372 14.4557C9.86941 14.6073 9.62669 14.6182 9.43751 14.5171C8.59513 13.8093 8.44522 13.4807 7.98119 12.8054C6.58912 14.2426 5.60397 14.6723 3.79785 14.6723C1.66334 14.6723 0 13.3398 0 10.6712C0 8.58756 1.11722 7.16838 2.70561 6.47504C4.0834 5.86114 6.00731 5.75281 7.47791 5.58308V5.25086C7.47791 4.64057 7.52431 3.91834 7.17094 3.39111C6.8604 2.91805 6.26788 2.72305 5.74674 2.72305C4.77944 2.72305 3.91564 3.225 3.70504 4.26501C3.66221 4.49613 3.49445 4.72363 3.26601 4.73446L0.803117 4.46723C0.596091 4.42029 0.367648 4.25057 0.424759 3.92918C0.992295 0.910256 3.6872 0.000244141 6.10012 0.000244141C7.33513 0.000244141 8.9485 0.332471 9.92295 1.27859C11.158 2.44499 11.0402 4.0014 11.0402 5.69503V9.69618C11.0402 10.8987 11.5328 11.4259 11.9968 12.0759C12.161 12.307 12.1967 12.5851 11.9896 12.7584C11.4721 13.1954 10.5512 14.0079 10.0443 14.4629L10.0372 14.4557" fill="white"></path>
    </g>
    <defs>
      <clipPath id="clip0_73:538">
        <rect width="82" height="25" fill="white"></rect>
      </clipPath>
    </defs>
  </symbol>
  <symbol fill="none" xmlns="http://www.w3.org/2000/svg" viewBox="0 0 76 26" id="apple">
    <g clip-path="url(#clip0_73:547)">
      <path d="M17.6774 13.8154C17.646 10.5255 20.3649 8.94475 20.4872 8.86948C18.9568 6.6333 16.5798 6.32594 15.7331 6.29144C13.7104 6.08444 11.7849 7.48324 10.7563 7.48324C9.7277 7.48324 8.14404 6.31966 6.4663 6.35416C4.25859 6.38553 2.22335 7.63691 1.08499 9.61279C-1.20426 13.5834 0.501705 19.4796 2.73764 22.7069C3.8321 24.2844 5.13038 26.0627 6.84262 25.9969C8.49213 25.931 9.11305 24.9305 11.1013 24.9305C13.0895 24.9305 13.6508 25.9969 15.3912 25.9655C17.1631 25.931 18.2857 24.3534 19.3708 22.7696C20.6189 20.9349 21.1363 19.1628 21.1677 19.0688C21.1269 19.0531 17.715 17.7452 17.6774 13.8154Z" fill="white"></path>
      <path d="M14.4066 4.15247C15.316 3.05163 15.9276 1.52425 15.7613 0C14.4537 0.0533173 12.87 0.871894 11.9323 1.97274C11.0919 2.94499 10.355 4.5006 10.5557 5.99349C12.0076 6.10639 13.5003 5.25018 14.4066 4.15247ZM29.1456 17.049L27.6404 21.6123H25.7055L30.6321 7.11001H32.89L37.8354 21.6123H35.8346L34.2855 17.049H29.1456ZM33.8997 15.5843L32.4823 11.4099C32.1593 10.4627 31.946 9.60338 31.7297 8.76285H31.6889C31.4725 9.6222 31.2373 10.5035 30.9582 11.3879L29.5408 15.5812L33.8997 15.5843ZM39.303 14.5964C39.303 13.2634 39.2622 12.1846 39.2152 11.1966H40.9149L41.0027 12.9843H41.0435C41.818 11.7141 43.0442 10.9614 44.7439 10.9614C47.2621 10.9614 49.1531 13.091 49.1531 16.2555C49.1531 20.0002 46.8732 21.8475 44.4209 21.8475C43.0442 21.8475 41.84 21.2454 41.2159 20.2135H41.1752V25.8714H39.303V14.5964ZM41.172 17.372C41.172 17.6543 41.2128 17.9083 41.2598 18.1467C41.6048 19.4577 42.7432 20.3641 44.101 20.3641C46.1018 20.3641 47.2652 18.73 47.2652 16.3402C47.2652 14.2514 46.1676 12.47 44.1669 12.47C42.878 12.47 41.6738 13.3952 41.3037 14.8159C41.2379 15.0511 41.1752 15.3334 41.1752 15.5906L41.172 17.372ZM51.1099 14.5964C51.1099 13.2634 51.0691 12.1846 51.0221 11.1966H52.7218L52.8096 12.9843H52.8504C53.6249 11.7141 54.8511 10.9614 56.5508 10.9614C59.069 10.9614 60.9599 13.091 60.9599 16.2555C60.9599 20.0002 58.6801 21.8475 56.2278 21.8475C54.8511 21.8475 53.6469 21.2454 53.0228 20.2135H52.9821V25.8714H51.1099V14.5964ZM52.9821 17.372C52.9821 17.6543 53.0228 17.9083 53.0699 18.1467C53.4148 19.4577 54.5532 20.3641 55.9111 20.3641C57.9118 20.3641 59.0752 18.73 59.0752 16.3402C59.0752 14.2514 57.9776 12.47 55.9769 12.47C54.688 12.47 53.4838 13.3952 53.1138 14.8159C53.0479 15.0511 52.9852 15.3334 52.9852 15.5906L52.9821 17.372ZM62.9199 6.33534H64.814V21.6092H62.9199V6.33534ZM68.6211 16.7479C68.6619 19.3071 70.2988 20.3641 72.1898 20.3641C73.5446 20.3641 74.363 20.1288 75.0718 19.8277L75.3948 21.1826C74.7299 21.4837 73.5885 21.8287 71.9327 21.8287C68.7277 21.8287 66.8117 19.7211 66.8117 16.5785C66.8117 13.4359 68.6619 10.9614 71.6943 10.9614C75.0937 10.9614 75.9969 13.9503 75.9969 15.8666C75.9969 16.2555 75.9561 16.5534 75.931 16.7479H68.6211ZM74.1717 15.393C74.1937 14.1887 73.6763 12.3163 71.547 12.3163C69.6309 12.3163 68.7936 14.082 68.6431 15.393H74.1717Z" fill="white"></path>
    </g>
    <defs>
      <clipPath id="clip0_73:547">
        <rect width="76" height="26" fill="white"></rect>
      </clipPath>
    </defs>
  </symbol>
  <symbol fill="none" xmlns="http://www.w3.org/2000/svg" viewBox="0 0 74 24" id="figma">
    <g clip-path="url(#clip0_102:3)">
      <path d="M8 11.9999C8 10.9391 8.42143 9.92166 9.17157 9.17151C9.92172 8.42137 10.9391 7.99994 12 7.99994C13.0609 7.99994 14.0783 8.42137 14.8284 9.17151C15.5786 9.92166 16 10.9391 16 11.9999C16 13.0608 15.5786 14.0782 14.8284 14.8284C14.0783 15.5785 13.0609 15.9999 12 15.9999C10.9391 15.9999 9.92172 15.5785 9.17157 14.8284C8.42143 14.0782 8 13.0608 8 11.9999Z" fill="#1ABCFE"></path>
      <path d="M0 20.0001C0 18.9392 0.421427 17.9218 1.17157 17.1716C1.92172 16.4215 2.93913 16.0001 4 16.0001H8V20.0001C8 21.0609 7.57857 22.0783 6.82843 22.8285C6.07828 23.5786 5.06087 24.0001 4 24.0001C2.93913 24.0001 1.92172 23.5786 1.17157 22.8285C0.421427 22.0783 0 21.0609 0 20.0001H0Z" fill="#0ACF83"></path>
      <path d="M8 0V8H12C13.0609 8 14.0783 7.57857 14.8284 6.82843C15.5786 6.07828 16 5.06087 16 4C16 2.93913 15.5786 1.92172 14.8284 1.17157C14.0783 0.421427 13.0609 0 12 0L8 0Z" fill="#FF7262"></path>
      <path d="M0 4C0 5.06087 0.421427 6.07828 1.17157 6.82843C1.92172 7.57857 2.93913 8 4 8H8V0H4C2.93913 0 1.92172 0.421427 1.17157 1.17157C0.421427 1.92172 0 2.93913 0 4H0Z" fill="#F24E1E"></path>
      <path d="M0 11.9999C0 13.0608 0.421427 14.0782 1.17157 14.8284C1.92172 15.5785 2.93913 15.9999 4 15.9999H8V7.99994H4C2.93913 7.99994 1.92172 8.42137 1.17157 9.17151C0.421427 9.92166 0 10.9391 0 11.9999H0Z" fill="#A259FF"></path>
    </g>
    <path d="M25.349 5V18.1815L27.0942 18.1881V11.9112H31.2894V10.2504H27.0875V6.65423H32.5581V5H25.349ZM35.686 7.68077C35.9887 7.68077 36.2789 7.56366 36.4929 7.35521C36.7069 7.14675 36.8271 6.86403 36.8271 6.56923C36.8271 6.27443 36.7069 5.99171 36.4929 5.78325C36.2789 5.5748 35.9887 5.45769 35.686 5.45769C35.3834 5.45769 35.0931 5.5748 34.8791 5.78325C34.6651 5.99171 34.5449 6.27443 34.5449 6.56923C34.5449 6.86403 34.6651 7.14675 34.8791 7.35521C35.0931 7.56366 35.3834 7.68077 35.686 7.68077ZM34.8067 9.335V18.1881H36.5519V9.335H34.8067Z" fill="white"></path>
    <path fill-rule="evenodd" clip-rule="evenodd" d="M43.0025 9.08002C40.6934 9.08002 39.0825 10.9827 39.0825 13.245C39.0825 15.5073 40.6934 17.41 43.0025 17.41C44.063 17.41 44.9356 17.0177 45.5733 16.3639V17.5408C45.5777 17.8924 45.5106 18.2415 45.3757 18.5677C45.2408 18.8939 45.0409 19.1909 44.7875 19.4414C44.534 19.6918 44.2322 19.8909 43.8993 20.0271C43.5664 20.1633 43.2091 20.2338 42.8481 20.2346C42.291 20.2346 41.7406 20.0254 41.3043 19.7246L40.4317 21.1958C41.1064 21.6206 41.8863 21.8602 42.6892 21.8893C43.4921 21.9183 44.2881 21.7357 44.9933 21.3608C45.6986 20.9858 46.2868 20.4324 46.6961 19.7589C47.1053 19.0854 47.3203 18.3169 47.3185 17.5342V9.34156H45.5733V10.1327C44.9356 9.47886 44.063 9.08656 43.0025 9.08656V9.08002ZM40.821 13.245C40.821 11.8392 41.9218 10.7342 43.1971 10.7342C44.4725 10.7342 45.5666 11.8458 45.5666 13.245C45.5666 14.6508 44.4658 15.7492 43.1971 15.7492C41.9218 15.7492 40.821 14.6508 40.821 13.245Z" fill="white"></path>
    <path d="M53.5878 10.7342C53.0887 10.7428 52.6131 10.9425 52.2639 11.29C51.9147 11.6375 51.7199 12.1049 51.7218 12.5912V18.1881H49.9766V9.33501H51.7218V10.1458C51.9829 9.80868 52.322 9.53644 52.7116 9.35124C53.1012 9.16603 53.5302 9.0731 53.9637 9.08001C55.1853 9.08001 56.1251 9.66847 56.662 10.5708C56.9616 10.1184 57.3716 9.74551 57.8554 9.48535C58.3392 9.2252 58.8817 9.08593 59.4342 9.08001C61.4144 9.08001 62.6562 10.6362 62.6562 12.565V18.1881H60.9244V12.5846C60.9262 12.0984 60.7315 11.6309 60.3823 11.2834C60.0331 10.9359 59.5575 10.7363 59.0583 10.7277C58.5592 10.7363 58.0836 10.9359 57.7344 11.2834C57.3852 11.6309 57.1905 12.0984 57.1923 12.5846V18.1815H55.4471V12.5846C55.449 12.0995 55.2552 11.633 54.9074 11.2857C54.5596 10.9384 54.0858 10.738 53.5878 10.7277V10.7342Z" fill="white"></path>
    <path fill-rule="evenodd" clip-rule="evenodd" d="M71.9393 10.342C71.543 9.93945 71.0666 9.61992 70.5391 9.40293C70.0117 9.18595 69.4443 9.07609 68.8718 9.08006C66.2808 9.08006 64.4416 11.2116 64.4416 13.7616C64.4416 16.3116 66.2808 18.4431 68.8718 18.4431C69.4441 18.446 70.0111 18.3356 70.5384 18.1187C71.0657 17.9018 71.5423 17.5828 71.9393 17.1812V18.1881H73.6778V9.33506H71.9326V10.342H71.9393ZM66.1801 13.7616C66.1801 12.0747 67.5092 10.7343 69.0597 10.7343C70.6036 10.7343 71.9393 12.0747 71.9393 13.7616C71.9393 15.4485 70.6103 16.7824 69.0597 16.7824C67.5159 16.7824 66.1801 15.4485 66.1801 13.7616Z" fill="white"></path>
    <defs>
      <clipPath id="clip0_102:3">
        <rect width="16" height="24" fill="white"></rect>
      </clipPath>
    </defs>
  </symbol>
  <symbol fill="none" xmlns="http://www.w3.org/2000/svg" viewBox="0 0 84 27" id="google">
    <g clip-path="url(#clip0_73:530)">
      <path d="M10.3448 0.00324249H11.0918C13.6851 0.0587597 16.2361 1.08583 18.0683 2.90401C17.3918 3.5841 16.7012 4.23643 16.0388 4.91651C15.0099 4.00048 13.7697 3.29263 12.4166 3.04281C10.4153 2.62643 8.25892 3.00117 6.58174 4.12539C4.74953 5.30513 3.50926 7.30375 3.24147 9.44116C2.9455 11.5508 3.55154 13.7715 4.94684 15.4093C6.28577 17.0054 8.32939 18.0047 10.4435 18.0741C12.4166 18.1851 14.4744 17.5883 15.9119 16.2281C17.0395 15.2705 17.5609 13.8131 17.7301 12.3975C15.3905 12.3975 13.0509 12.4113 10.7113 12.3975V9.53832H20.563C21.0703 12.6056 20.3374 16.0616 17.9697 18.2545C16.3911 19.809 14.2066 20.725 11.9797 20.9055C9.82335 21.1136 7.59651 20.7111 5.67973 19.6841C3.38241 18.4766 1.5502 16.4363 0.648183 14.0352C-0.197455 11.8284 -0.211549 9.33013 0.577713 7.10944C1.29651 5.08306 2.67771 3.29263 4.45355 2.0435C6.15892 0.808242 8.23073 0.128156 10.3448 0.00324249Z" fill="#3780FF"></path>
      <path d="M66.8617 0.724144H69.8779V20.5438C68.8772 20.5438 67.8624 20.5577 66.8617 20.5299C66.8758 13.9372 66.8617 7.33069 66.8617 0.724144Z" fill="#38B137"></path>
      <path d="M27.2718 7.5944C29.1322 7.24741 31.1476 7.63603 32.6839 8.7325C34.0792 9.70405 35.0517 11.2308 35.3477 12.8963C35.7282 14.8255 35.249 16.9352 33.9805 18.4619C32.6134 20.169 30.3725 21.0851 28.1879 20.9463C26.1866 20.8352 24.2416 19.8498 23.0577 18.2398C21.7188 16.4633 21.3946 14.0205 22.1275 11.9386C22.8604 9.70405 24.9322 7.99689 27.2718 7.5944ZM27.6946 10.2315C26.9336 10.4258 26.2289 10.856 25.7215 11.4667C24.3544 13.0767 24.4389 15.6999 25.947 17.1989C26.8067 18.0594 28.1034 18.4619 29.3013 18.2259C30.4148 18.0316 31.3872 17.296 31.9228 16.3245C32.853 14.6728 32.5852 12.3966 31.1617 11.1059C30.2456 10.2731 28.9067 9.92612 27.6946 10.2315Z" fill="#FA3913"></path>
      <path d="M42.2114 7.59434C44.3396 7.19184 46.6651 7.77477 48.2577 9.24598C50.851 11.5361 51.1328 15.8248 48.9201 18.4618C47.5812 20.1273 45.4107 21.0434 43.2684 20.9462C41.2248 20.8907 39.2094 19.8914 37.9973 18.2398C36.6302 16.4216 36.3342 13.9233 37.1094 11.7998C37.8846 9.6346 39.9141 7.98296 42.2114 7.59434ZM42.6342 10.2314C41.8731 10.4257 41.1684 10.856 40.6611 11.4528C39.308 13.035 39.3644 15.6166 40.8161 17.1294C41.6758 18.0316 43.0147 18.4757 44.255 18.2259C45.3543 18.0177 46.3409 17.296 46.8765 16.3244C47.7926 14.6589 47.5248 12.3827 46.0872 11.0919C45.1711 10.2592 43.8322 9.92606 42.6342 10.2314Z" fill="#FCBD06"></path>
      <path d="M54.8819 8.39941C56.5027 7.4001 58.6591 7.12251 60.4067 7.98303C60.9564 8.21897 61.4074 8.62147 61.8443 9.02397C61.8584 8.64923 61.8443 8.26061 61.8584 7.87199C62.8027 7.88587 63.747 7.87199 64.7054 7.88587V20.1274C64.6913 21.9734 64.2121 23.9303 62.8591 25.2766C61.3792 26.7617 59.1101 27.2197 57.0664 26.9144C54.8819 26.5952 52.9792 25.0268 52.1336 23.0421C52.9792 22.6396 53.8671 22.3203 54.7409 21.9456C55.2342 23.0837 56.2349 24.0553 57.4893 24.2773C58.7436 24.4994 60.1953 24.194 61.0128 23.167C61.8866 22.1121 61.8866 20.6687 61.8443 19.3779C61.196 20.0025 60.449 20.5577 59.547 20.7659C57.5879 21.3072 55.4315 20.6409 53.9235 19.3363C52.4013 18.0316 51.4993 16.0191 51.5839 14.0205C51.6262 11.7582 52.9228 9.57915 54.8819 8.39941ZM57.7993 10.176C56.9396 10.3147 56.1362 10.7866 55.5866 11.439C54.2617 12.9935 54.2617 15.4778 55.6007 17.0046C56.3617 17.9067 57.5879 18.4064 58.7718 18.2815C59.8852 18.1704 60.9141 17.4765 61.4638 16.5188C62.394 14.8949 62.2389 12.6881 60.9846 11.2724C60.2094 10.398 58.9691 9.96777 57.7993 10.176Z" fill="#3780FF"></path>
      <path d="M73.5 9.10727C75.1913 7.55279 77.7987 7.02537 79.9691 7.84425C82.0269 8.60761 83.3376 10.5368 84 12.5216C80.9416 13.7707 77.8973 15.006 74.8389 16.2551C75.2617 17.0462 75.9101 17.7679 76.7839 18.0594C78.0101 18.4897 79.4758 18.337 80.5047 17.532C80.9134 17.2267 81.2376 16.8242 81.5477 16.4355C82.3228 16.9491 83.098 17.4487 83.8732 17.9623C82.7738 19.5861 80.9275 20.7242 78.9403 20.9047C76.7416 21.1684 74.402 20.3356 72.9785 18.6423C70.6389 15.9775 70.8644 11.5084 73.5 9.10727ZM75.0081 11.6749C74.5289 12.355 74.3315 13.1878 74.3456 14.0067C76.3893 13.1739 78.4329 12.3411 80.4765 11.4945C80.1383 10.7173 79.3208 10.2454 78.4893 10.1205C77.1503 9.88451 75.755 10.5924 75.0081 11.6749Z" fill="#FA3913"></path>
    </g>
    <defs>
      <clipPath id="clip0_73:530">
        <rect width="84" height="27" fill="white"></rect>
      </clipPath>
    </defs>
  </symbol>
  <symbol fill="none" xmlns="http://www.w3.org/2000/svg" viewBox="0 0 35 16" id="logo">
    <path d="M2.40234 9.89258C2.40234 11.0124 2.63997 11.9499 3.11523 12.7051C3.59049 13.4603 4.35221 13.8379 5.40039 13.8379C6.21419 13.8379 6.88151 13.4896 7.40234 12.793C7.92969 12.0898 8.19336 11.084 8.19336 9.77539C8.19336 8.45378 7.92318 7.47721 7.38281 6.8457C6.84245 6.20768 6.17513 5.88867 5.38086 5.88867C4.49544 5.88867 3.77604 6.22721 3.22266 6.9043C2.67578 7.58138 2.40234 8.57747 2.40234 9.89258ZM5.04883 4.35547C5.84961 4.35547 6.52018 4.52474 7.06055 4.86328C7.37305 5.05859 7.72786 5.40039 8.125 5.88867V0.605469H9.81445V15H8.23242V13.5449C7.82227 14.1895 7.33724 14.6549 6.77734 14.9414C6.21745 15.2279 5.57617 15.3711 4.85352 15.3711C3.68815 15.3711 2.67904 14.8828 1.82617 13.9062C0.973307 12.9232 0.546875 11.6178 0.546875 9.99023C0.546875 8.4668 0.934245 7.14844 1.70898 6.03516C2.49023 4.91536 3.60352 4.35547 5.04883 4.35547ZM16.8457 6.23047C17.4642 5.79427 17.8906 5.43945 18.125 5.16602C18.5091 4.72331 18.7012 4.23177 18.7012 3.69141C18.7012 3.26823 18.5612 2.90365 18.2812 2.59766C18.0013 2.29167 17.6237 2.13867 17.1484 2.13867C16.4258 2.13867 15.9245 2.37956 15.6445 2.86133C15.5013 3.10872 15.4297 3.37891 15.4297 3.67188C15.4297 4.06901 15.5371 4.44987 15.752 4.81445C15.9733 5.17904 16.3379 5.65104 16.8457 6.23047ZM16.3965 13.7891C17.1191 13.7891 17.7409 13.623 18.2617 13.291C18.7826 12.959 19.1829 12.5879 19.4629 12.1777L16.2207 8.22266C15.3027 8.83464 14.7038 9.30339 14.4238 9.62891C13.9941 10.1172 13.7793 10.7129 13.7793 11.416C13.7793 12.1777 14.056 12.7637 14.6094 13.1738C15.1693 13.584 15.765 13.7891 16.3965 13.7891ZM15.2441 7.02148C14.6387 6.32487 14.2318 5.73893 14.0234 5.26367C13.8216 4.78841 13.7207 4.32943 13.7207 3.88672C13.7207 2.96224 14.0332 2.19727 14.6582 1.5918C15.2832 0.979818 16.1198 0.673828 17.168 0.673828C18.1641 0.673828 18.9421 0.957031 19.502 1.52344C20.0618 2.08984 20.3418 2.76693 20.3418 3.55469C20.3418 4.47266 20.0521 5.27669 19.4727 5.9668C19.1341 6.37044 18.5677 6.83594 17.7734 7.36328L20.3906 10.4883C20.5664 9.96745 20.6868 9.58008 20.752 9.32617C20.8236 9.06576 20.8952 8.70443 20.9668 8.24219H22.6367C22.526 9.16016 22.3047 10.0423 21.9727 10.8887C21.6406 11.7285 21.4746 12.0671 21.4746 11.9043L24.0234 15H21.7578L20.4102 13.3594C19.8763 13.9388 19.388 14.362 18.9453 14.6289C18.1706 15.0977 17.2786 15.332 16.2695 15.332C14.7786 15.332 13.6947 14.9316 13.0176 14.1309C12.3405 13.3236 12.002 12.4154 12.002 11.4062C12.002 10.319 12.3307 9.41081 12.9883 8.68164C13.3919 8.23893 14.1439 7.68555 15.2441 7.02148ZM29.7949 4.23828C30.9733 4.23828 31.9303 4.52474 32.666 5.09766C33.4082 5.67057 33.8542 6.6569 34.0039 8.05664H32.2949C32.1908 7.41211 31.9531 6.87826 31.582 6.45508C31.2109 6.02539 30.6152 5.81055 29.7949 5.81055C28.6751 5.81055 27.8743 6.35742 27.3926 7.45117C27.0801 8.16081 26.9238 9.03646 26.9238 10.0781C26.9238 11.1263 27.1452 12.0085 27.5879 12.7246C28.0306 13.4408 28.7272 13.7988 29.6777 13.7988C30.4069 13.7988 30.9831 13.5775 31.4062 13.1348C31.8359 12.6855 32.1322 12.0736 32.2949 11.2988H34.0039C33.8086 12.6855 33.3203 13.7012 32.5391 14.3457C31.7578 14.9837 30.7585 15.3027 29.541 15.3027C28.1738 15.3027 27.0833 14.8047 26.2695 13.8086C25.4557 12.806 25.0488 11.556 25.0488 10.0586C25.0488 8.22266 25.4948 6.79362 26.3867 5.77148C27.2786 4.74935 28.4147 4.23828 29.7949 4.23828Z" fill="white"></path>
  </symbol>
  <symbol fill="none" xmlns="http://www.w3.org/2000/svg" viewBox="0 0 20 14" id="hamburger-menu">
    <path d="M0 0V2H20V0H0ZM0 6V8H20V6H0ZM0 12V14H20V12H0Z" fill="white"></path>
  </symbol>
  <symbol fill="none" xmlns="http://www.w3.org/2000/svg" viewBox="0 0 93 20" id="microsoft">
    <g clip-path="url(#clip0_73:550)">
      <path d="M92.9999 9.04809V7.40141H90.9689V4.84145L90.9005 4.86264L88.9929 5.4503L88.9552 5.46181V7.4015H85.9442V6.32092C85.9442 5.81777 86.056 5.43273 86.2762 5.17595C86.4949 4.92224 86.8077 4.79326 87.2067 4.79326C87.4935 4.79326 87.7905 4.86128 88.0893 4.99543L88.1643 5.02912V3.29495L88.129 3.2819C87.8502 3.181 87.471 3.13019 87.001 3.13019C86.4086 3.13019 85.8703 3.25998 85.4009 3.51722C84.9312 3.77482 84.5617 4.14256 84.3028 4.61012C84.0449 5.07713 83.914 5.61651 83.914 6.21341V7.40141H82.4998V9.04809H83.914V15.9852H85.9442V9.04809H88.9552V13.4565C88.9552 15.2721 89.8059 16.1922 91.4834 16.1922C91.7591 16.1922 92.0492 16.1597 92.3454 16.096C92.647 16.0306 92.8524 15.9653 92.9733 15.8956L93 15.8796V14.2177L92.9174 14.2727C92.8072 14.3466 92.67 14.407 92.5092 14.452C92.3476 14.4977 92.2127 14.5206 92.1081 14.5206C91.7152 14.5206 91.4244 14.414 91.244 14.2036C91.0616 13.9913 90.969 13.62 90.969 13.1007V9.04809H92.9999ZM77.966 14.5209C77.2291 14.5209 76.6481 14.2749 76.2387 13.7903C75.8267 13.3033 75.618 12.6089 75.618 11.7267C75.618 10.8165 75.8267 10.1041 76.2388 9.60848C76.6485 9.11611 77.2239 8.86621 77.9494 8.86621C78.6534 8.86621 79.2138 9.10488 79.6152 9.57597C80.0186 10.0495 80.2233 10.7562 80.2233 11.677C80.2233 12.6091 80.0308 13.3251 79.6512 13.8041C79.2741 14.2794 78.7072 14.5209 77.966 14.5209ZM78.0562 7.19462C76.6503 7.19462 75.5337 7.60937 74.7375 8.42737C73.9419 9.24545 73.5385 10.3776 73.5385 11.7926C73.5385 13.1365 73.9323 14.2176 74.709 15.0051C75.4857 15.7929 76.5428 16.192 77.8506 16.192C79.2134 16.192 80.3078 15.7715 81.1036 14.9422C81.8994 14.1138 82.3025 12.9923 82.3025 11.6104C82.3025 10.2454 81.9242 9.15633 81.1778 8.37402C80.431 7.59135 79.3806 7.19462 78.0562 7.19462ZM70.2651 7.19462C69.3088 7.19462 68.5178 7.4409 67.9135 7.92648C67.3055 8.41496 66.9971 9.0556 66.9971 9.83085C66.9971 10.2338 67.0637 10.5918 67.1947 10.8954C67.3265 11.2 67.5304 11.4682 67.8014 11.6933C68.0703 11.9166 68.4854 12.1504 69.0354 12.3884C69.4978 12.5799 69.8427 12.742 70.0617 12.8697C70.2758 12.9949 70.4278 13.1207 70.5136 13.2432C70.597 13.3631 70.6393 13.5273 70.6393 13.7298C70.6393 14.3065 70.2104 14.5871 69.3277 14.5871C69.0003 14.5871 68.6269 14.5183 68.2178 14.3826C67.8117 14.249 67.4283 14.0533 67.0812 13.8024L66.9969 13.7415V15.7094L67.0279 15.7239C67.3151 15.8574 67.6773 15.97 68.1042 16.0586C68.5303 16.1473 68.9174 16.1924 69.2537 16.1924C70.2914 16.1924 71.1271 15.9449 71.7369 15.4565C72.3505 14.9646 72.6615 14.3089 72.6615 13.5068C72.6615 12.9282 72.4941 12.432 72.1641 12.0319C71.8364 11.6349 71.2675 11.2706 70.4741 10.9485C69.842 10.693 69.4371 10.481 69.27 10.3182C69.109 10.161 69.0272 9.93863 69.0272 9.65703C69.0272 9.4074 69.1282 9.20741 69.3354 9.04546C69.5442 8.88269 69.8348 8.79991 70.1994 8.79991C70.5376 8.79991 70.8837 8.85371 71.2279 8.95914C71.5719 9.06457 71.874 9.20578 72.1261 9.37851L72.2091 9.43557V7.56879L72.1772 7.55503C71.9446 7.45458 71.6378 7.36862 71.2652 7.29888C70.8943 7.22958 70.5578 7.19462 70.2651 7.19462ZM61.7044 14.5209C60.9677 14.5209 60.3866 14.2749 59.9772 13.7903C59.5652 13.3033 59.3568 12.6091 59.3568 11.7267C59.3568 10.8165 59.5655 10.1041 59.9777 9.60848C60.387 9.11611 60.9623 8.86621 61.6882 8.86621C62.3918 8.86621 62.9522 9.10488 63.3537 9.57597C63.7572 10.0495 63.9619 10.7562 63.9619 11.677C63.9619 12.6091 63.7693 13.3251 63.3896 13.8041C63.0126 14.2794 62.4459 14.5209 61.7044 14.5209ZM61.7949 7.19462C60.3887 7.19462 59.272 7.60937 58.4763 8.42737C57.6806 9.24545 57.2769 10.3776 57.2769 11.7926C57.2769 13.1371 57.671 14.2176 58.4477 15.0051C59.2245 15.7929 60.2815 16.192 61.5893 16.192C62.9519 16.192 64.0466 15.7715 64.8424 14.9422C65.6379 14.1138 66.0412 12.9923 66.0412 11.6104C66.0412 10.2454 65.6629 9.15633 64.9162 8.37402C64.1693 7.59135 63.119 7.19462 61.7949 7.19462ZM54.1951 8.88795V7.40141H52.1897V15.9851H54.1951V11.5942C54.1951 10.8476 54.3633 10.2342 54.6951 9.77089C55.0226 9.31311 55.4591 9.08115 55.9921 9.08115C56.1727 9.08115 56.3755 9.11113 56.5951 9.17046C56.8125 9.22942 56.9699 9.29346 57.0627 9.36085L57.147 9.42235V7.38673L57.1146 7.3727C56.9278 7.29281 56.6636 7.2525 56.3293 7.2525C55.8253 7.2525 55.3743 7.41554 54.988 7.73654C54.6489 8.01869 54.4039 8.40554 54.2165 8.88795H54.1951ZM48.5982 7.19462C47.6781 7.19462 46.8575 7.39326 46.1595 7.78482C45.46 8.17729 44.919 8.73759 44.551 9.45006C44.1846 10.1608 43.9985 10.991 43.9985 11.9169C43.9985 12.7279 44.1789 13.4722 44.5354 14.1282C44.8921 14.7852 45.397 15.2992 46.0361 15.6557C46.6743 16.0118 47.4119 16.1923 48.2286 16.1923C49.1817 16.1923 49.9954 16.0005 50.6479 15.6221L50.6742 15.6069V13.7571L50.5899 13.819C50.2944 14.0358 49.9641 14.2088 49.6088 14.3334C49.2543 14.4579 48.9312 14.5209 48.6478 14.5209C47.8609 14.5209 47.2291 14.273 46.7706 13.7842C46.3111 13.2949 46.078 12.6076 46.078 11.7429C46.078 10.8727 46.321 10.1679 46.7999 9.64779C47.2774 9.12924 47.9103 8.86621 48.6809 8.86621C49.3401 8.86621 49.9824 9.09093 50.5901 9.53475L50.6742 9.59625V7.64714L50.647 7.63174C50.4184 7.50285 50.1065 7.39643 49.7193 7.31572C49.3337 7.2352 48.9565 7.19462 48.5982 7.19462ZM42.6173 7.4015H40.6118V15.9851H42.6173V7.4015ZM41.6351 3.74484C41.305 3.74484 41.0171 3.85797 40.7806 4.08215C40.5431 4.30696 40.4226 4.59001 40.4226 4.92405C40.4226 5.25285 40.5417 5.53073 40.7769 5.74957C41.0106 5.96777 41.2994 6.07836 41.6352 6.07836C41.9708 6.07836 42.2607 5.96776 42.4972 5.74993C42.7353 5.53073 42.856 5.25294 42.856 4.92405C42.856 4.60169 42.7385 4.32154 42.507 4.0912C42.2757 3.86132 41.9823 3.74484 41.6351 3.74484ZM36.6313 6.76819V15.9851H38.678V4.0076H35.8453L32.2447 12.9041L28.7506 4.0076H25.8026V15.985H27.7259V6.76728H27.792L31.4817 15.9851H32.9331L36.5653 6.76819H36.6313Z" fill="white"></path>
      <path d="M9.43434 9.50369H-1.52588e-05V0.00512695H9.43434V9.50369Z" fill="#F1511B"></path>
      <path d="M19.8509 9.50369H10.4167V0.00512695H19.8509V9.50369Z" fill="#80CC28"></path>
      <path d="M9.43407 19.9949H-1.52588e-05V10.4964H9.43407V19.9949Z" fill="#00ADEF"></path>
      <path d="M19.8509 19.9949H10.4167V10.4964H19.8509V19.9949Z" fill="#FBBC09"></path>
    </g>
    <defs>
      <clipPath id="clip0_73:550">
        <rect width="93" height="20" fill="white"></rect>
      </clipPath>
    </defs>
  </symbol>
  <symbol fill="none" xmlns="http://www.w3.org/2000/svg" viewBox="0 0 58 17" id="netflix">
    <path d="M54.8973 7.77136L58 16.3264C57.0856 16.1904 56.1717 16.02 55.2411 15.8666L53.4933 11.1396L51.6974 15.4763C50.8159 15.3229 49.9501 15.2718 49.0685 15.1526L52.2199 7.66965L49.3616 0H52.0072L53.6071 4.28515L55.3221 0H57.9995L54.8973 7.77136ZM47.2727 0H44.8722V14.8298C45.656 14.881 46.4721 14.9147 47.2727 15.0165V0ZM42.7983 14.6595C40.6105 14.5066 38.4221 14.3711 36.1852 14.3194V6.57029e-05H38.6343V11.9047C40.0389 11.9384 41.4429 12.0571 42.7983 12.1251V14.6595ZM33.5721 5.79967V8.3504H30.2248V14.1495H27.8087V0H34.6668V2.55072H30.2253V5.79974H33.5726L33.5721 5.79967ZM23.6933 2.55072V14.2856C22.8766 14.2856 22.0443 14.2856 21.2437 14.3194V2.55072H18.7127V0H26.24V2.55072H23.6933ZM16.0677 8.48594C14.9902 8.48594 13.7163 8.48594 12.8019 8.53765V12.3297C14.2388 12.2274 15.6757 12.1087 17.1288 12.0576V14.5066L10.3528 15.0682V0H17.1284V2.55072H12.8018V5.98634C13.7491 5.98634 15.2023 5.93522 16.0675 5.93522V8.48647L16.0677 8.48594ZM2.49769 7.05736V15.9689C1.61672 16.0712 0.832396 16.1903 0 16.3264V0H2.33519L5.51898 9.26912V0H7.96854V15.2718C7.10322 15.4252 6.22124 15.4763 5.29062 15.6119L2.49769 7.05736Z" fill="#E50914"></path>
  </symbol>
  <symbol fill="none" xmlns="http://www.w3.org/2000/svg" viewBox="0 0 100 29" id="shopify">
    <g clip-path="url(#clip0_73:524)">
      <path d="M11.3 0.999997C11.5 0.999997 11.6 1.1 11.8 1.2C10.6 1.7 9.4 3 8.8 5.8L6.6 6.4C7.3 4.4 8.7 0.999997 11.3 0.999997ZM12.4 2C12.6 2.6 12.8 3.3 12.8 4.4C12.8 4.5 12.8 4.5 12.8 4.6L9.9 5.4C10.5 3.3 11.5 2.4 12.4 2ZM15 3.8L13.7 4.2C13.7 4.1 13.7 4 13.7 3.9C13.7 3 13.6 2.3 13.4 1.7C14.1 1.9 14.7 2.8 15 3.8ZM21.5 5.4C21.5 5.3 21.4 5.2 21.3 5.2C21.1 5.2 19 5 19 5C19 5 17.5 3.5 17.3 3.4C17.1 3.2 16.8 3.3 16.7 3.3C16.7 3.3 16.4 3.4 15.9 3.6C15.4 2.2 14.5 0.899997 13 0.899997H12.9C12.5 0.299997 11.9 0.0999974 11.4 0.0999974C7.8 -2.57045e-06 6.1 4.5 5.5 6.8C4.7 7 3.9 7.3 3 7.6C2.2 7.8 2.2 7.9 2.1 8.6C2 9.1 0 24.9 0 24.9L15.9 27.9L24.5 26C24.5 26 21.5 5.6 21.5 5.4Z" fill="#8DB849"></path>
      <path d="M21.2 5.2C21.1 5.2 19 5 19 5C19 5 17.5 3.5 17.3 3.4C17.2 3.3 17.2 3.3 17.1 3.3L15.9 27.9L24.5 26C24.5 26 21.5 5.6 21.5 5.4C21.5 5.3 21.3 5.2 21.2 5.2Z" fill="#5A863E"></path>
      <path d="M13 10L11.9 13.2C11.9 13.2 11 12.7 9.80001 12.7C8.10001 12.7 8.00001 13.7 8.00001 14C8.00001 15.4 11.8 16 11.8 19.4C11.8 22.1 10.1 23.8 7.80001 23.8C5.10001 23.8 3.70001 22.1 3.70001 22.1L4.40001 19.7C4.40001 19.7 5.80001 20.9 7.00001 20.9C7.80001 20.9 8.10001 20.3 8.10001 19.8C8.10001 17.9 5.00001 17.8 5.00001 14.7C5.00001 12.1 6.90001 9.6 10.6 9.6C12.3 9.5 13 10 13 10Z" fill="#FFFFFE"></path>
      <path d="M34.6 15.9C33.7 15.4 33.3 15 33.3 14.5C33.3 13.8 33.9 13.4 34.9 13.4C36 13.4 37 13.9 37 13.9L37.8 11.5C37.8 11.5 37.1 10.9 35 10.9C32 10.9 30 12.6 30 15C30 16.4 31 17.4 32.2 18.1C33.2 18.7 33.6 19.1 33.6 19.7C33.6 20.3 33.1 20.9 32.1 20.9C30.7 20.9 29.3 20.2 29.3 20.2L28.5 22.6C28.5 22.6 29.7 23.4 31.8 23.4C34.8 23.4 37 21.9 37 19.2C37 17.7 35.9 16.6 34.6 15.9ZM46.7 10.8C45.2 10.8 44 11.5 43.1 12.6L44.4 5.8H41L37.7 23.1H41.1L42.2 17.2C42.6 15 43.8 13.6 44.9 13.6C45.7 13.6 46 14.1 46 14.9C46 15.4 46 15.9 45.9 16.4L44.6 23.2H48L49.3 16.2C49.4 15.5 49.5 14.6 49.5 14C49.5 12 48.5 10.8 46.7 10.8ZM55.4 20.7C54.2 20.7 53.8 19.7 53.8 18.5C53.8 16.6 54.8 13.4 56.6 13.4C57.8 13.4 58.2 14.4 58.2 15.4C58.2 17.6 57.2 20.7 55.4 20.7ZM57.1 10.8C53 10.8 50.3 14.5 50.3 18.6C50.3 21.2 51.9 23.3 55 23.3C59 23.3 61.7 19.7 61.7 15.5C61.7 13.1 60.3 10.8 57.1 10.8ZM67.1 20.8C66.2 20.8 65.7 20.3 65.7 20.3L66.3 17.1C66.7 15 67.8 13.6 69 13.6C70 13.6 70.4 14.6 70.4 15.5C70.3 17.7 69 20.8 67.1 20.8ZM70.4 10.8C68.1 10.8 66.8 12.8 66.8 12.8L67 11H64C63.9 12.2 63.6 14.1 63.3 15.5L60.9 27.9H64.3L65.2 22.9H65.3C65.3 22.9 66 23.3 67.3 23.3C71.3 23.3 73.9 19.2 73.9 15.1C73.9 12.9 72.9 10.8 70.4 10.8ZM78.7 6C77.6 6 76.8 6.9 76.8 8C76.8 9 77.4 9.7 78.4 9.7C79.5 9.7 80.4 9 80.4 7.7C80.4 6.7 79.7 6 78.7 6ZM74 23.1H77.4L79.7 11.1H76.3L74 23.1ZM88.3 11.1H85.9L86 10.5C86.2 9.3 86.9 8.3 88 8.3C88.6 8.3 89.1 8.5 89.1 8.5L89.8 5.8C89.8 5.8 89.2 5.5 88 5.5C86.8 5.5 85.6 5.8 84.7 6.6C83.5 7.6 83 9 82.7 10.4L82.6 11H81L80.5 13.6H82.1L80.3 23.1H83.7L85.5 13.6H87.8L88.3 11.1ZM96.4 11.1C96.4 11.1 94.3 16.4 93.3 19.3C93.2 18.4 92.5 11.1 92.5 11.1H88.9L90.9 22.1C90.9 22.3 90.9 22.5 90.8 22.7C90.4 23.5 89.7 24.2 89 24.7C88.4 25.2 87.6 25.5 87.1 25.7L88 28.6C88.7 28.5 90.1 27.9 91.3 26.8C92.8 25.4 94.3 23.1 95.7 20.1L99.8 11.2L96.4 11.1Z" fill="white"></path>
    </g>
    <defs>
      <clipPath id="clip0_73:524">
        <rect width="100" height="28.6" fill="white"></rect>
      </clipPath>
    </defs>
  </symbol>
  <symbol fill="none" xmlns="http://www.w3.org/2000/svg" viewBox="0 0 48 48" id="social-facebook">
    <path d="M24 5C18.9609 5 14.1282 7.00178 10.565 10.565C7.00178 14.1282 5 18.9609 5 24C5 29.0391 7.00178 33.8718 10.565 37.435C14.1282 40.9982 18.9609 43 24 43C29.0391 43 33.8718 40.9982 37.435 37.435C40.9982 33.8718 43 29.0391 43 24C43 18.9609 40.9982 14.1282 37.435 10.565C33.8718 7.00178 29.0391 5 24 5V5Z" fill="#4267B2"></path>
    <path d="M26.572 29.0358H31.489L32.261 24.0408H26.571V21.3108C26.571 19.2358 27.249 17.3958 29.19 17.3958H32.309V13.0368C31.761 12.9628 30.602 12.8008 28.412 12.8008C23.839 12.8008 21.158 15.2158 21.158 20.7178V24.0408H16.457V29.0358H21.158V42.7648C22.089 42.9048 23.032 42.9998 24 42.9998C24.875 42.9998 25.729 42.9198 26.572 42.8058V29.0358Z" fill="white"></path>
  </symbol>
  <symbol fill="none" xmlns="http://www.w3.org/2000/svg" viewBox="0 0 48 48" id="social-instagram">
    <path d="M41.67 13.48C41.27 13.74 40.7 13.98 40.46 14.25C40.37 14.34 40.32 14.44 40.34 14.54V15.57L40.04 16.58L39.74 17.58L39.41 18.68L38.73 20.93L38.07 23.15L37.57 24.82C37.57 25.08 37.56 25.34 37.54 25.59C37.47 26.55 37.27 27.47 36.95 28.33C36.76 28.86 36.53 29.37 36.25 29.85C36.15 30.04 36.03 30.23 35.91 30.41C35.51 31.04 35.03 31.62 34.5 32.13C34.09 32.54 33.64 32.92 33.15 33.24C33.15 33.24 33.15 33.24 33.14 33.24C33.06 33.31 32.97 33.37 32.87 33.42C32.56 33.63 32.23 33.81 31.89 33.97C31.66 34.09 31.43 34.19 31.19 34.28C31.14 34.31 31.08 34.33 31.03 34.35C30.46 34.62 29.8 34.8 29.14 34.89C29.1 34.9 29.07 34.9 29.03 34.91C28.63 34.98 28.24 35.04 27.84 35.07C27.66 35.09 27.47 35.1 27.29 35.1L26.58 35.06L23.16 34.88C23.16 34.87 23.15 34.88 23.15 34.88L21.43 34.79C21.3 34.79 21.16 34.79 21.03 34.78C20.49 34.76 19.97 34.7 19.45 34.59C19.44 34.59 19.44 34.59 19.44 34.59C18.49 34.41 17.58 34.09 16.73 33.66C16.26 33.42 15.8 33.15 15.37 32.84C15.19 32.71 15.02 32.57 14.85 32.42C14.37 32.02 13.94 31.59 13.54 31.15C13.48 31.09 13.43 31.03 13.38 30.97C13.32 30.91 13.26 30.84 13.21 30.78C12.83 30.3 12.51 29.81 12.25 29.29C12.01 28.83 11.82 28.34 11.67 27.8C11.61 27.61 11.56 27.43 11.52 27.23C11.51 27.22 11.5 27.2 11.5 27.18C11.4 26.77 11.31 26.34 11.26 25.91C11.2 25.58 11.17 25.25 11.17 24.91C11.15 24.78 11.15 24.64 11.15 24.51L13.06 21.56L14.93 18.68L15.78 17.37L16.55 16.19L16.81 15.78V14.75C16.83 14.52 16.84 14.28 16.83 14.06C16.82 13.36 16.68 12.68 16.45 12.03C16.23 11.34 15.92 10.69 15.6 10.09C15.22 9.4 14.82 8.78 14.49 8.22C14 7.4 13.66 6.73 13.75 6.26C14.47 6.09 15.23 6 16 6H32C36.18 6 39.78 8.6 41.27 12.26C41.43 12.65 41.57 13.06 41.67 13.48Z" fill="#304FFE"></path>
    <path d="M42 16V16.27L40.62 17.07L39.74 17.58L38.77 18.14L36.83 19.27L34.93 20.37L32.99 21.49L32.22 21.94C32.22 22.42 32.1 22.86 31.88 23.26C31.57 23.84 31.05 24.32 30.39 24.73C29.72 25.14 28.9 25.47 27.98 25.71C27.98 25.71 27.98 25.7 27.97 25.71C24.41 26.63 19.55 26.21 17.19 24.45C16.53 23.96 16.07 23.36 15.87 22.67C15.81 22.44 15.78 22.19 15.78 21.94V14.75C15.79 14.6 15.69 14.45 15.51 14.3C14.97 13.87 13.7 13.46 12.28 13.05C11.17 12.74 9.97999 12.43 8.97999 12.13C8.18999 11.89 7.52 11.65 7.12 11.42C7.3 11.07 7.51 10.72 7.73 10.39C9.13 8.34 11.27 6.83 13.75 6.26C14.47 6.09 15.23 6 16 6H26.8C32.17 6.94 37.12 9.13 41.27 12.26C41.43 12.65 41.57 13.06 41.67 13.48C41.85 14.14 41.96 14.82 41.99 15.53C42 15.68 42 15.84 42 16Z" fill="#4928F4"></path>
    <path d="M42 16.0001V20.4101L41.78 21.0901L41.03 23.4201L40.25 25.8201L39.84 27.1001L39.46 28.2901L39.09 29.4201L38.73 30.5401L38.54 31.1301L38.29 31.9101C38.29 32.6701 38.27 33.3401 38.22 33.9101C38.21 33.9701 38.2 34.0301 38.2 34.0901C38.14 34.6201 38.06 35.0701 37.93 35.4501C37.92 35.5101 37.9 35.5701 37.88 35.6201C37.62 36.3401 37.23 36.8001 36.65 37.1001C36.51 37.1801 36.35 37.2401 36.18 37.3001C35.65 37.4801 34.98 37.5701 34.16 37.6201C33.56 37.6601 32.87 37.6701 32.09 37.6701H31.4L30.21 37.6201L30 37.6101L27.83 37.5201L25.63 37.4301L18.38 37.1301L16.5 37.0501H16.24C15.46 37.0401 14.79 36.9901 14.21 36.9101C13.37 36.7801 12.72 36.5601 12.23 36.2301C11.53 35.7801 11.12 35.1201 10.88 34.2001C10.82 33.9801 10.77 33.7501 10.74 33.5001C10.64 32.9201 10.59 32.2501 10.56 31.5001C10.56 31.3501 10.56 31.2001 10.55 31.0401C10.54 31.0301 10.55 31.0301 10.55 31.0301V30.4501C10.54 30.1601 10.54 29.8601 10.54 29.5501L10.59 27.9401L10.62 26.7901L10.66 25.4501V25.2601L10.73 22.8001L10.8 20.3401L10.87 18.0301L10.93 15.7601L10.95 15.1601C10.95 14.8501 9.90001 14.6701 8.73001 14.5201C7.80001 14.4001 6.78001 14.2901 6.17001 14.1501C6.22001 13.9201 6.27001 13.6901 6.33001 13.4701C6.51001 12.7501 6.78001 12.0701 7.12001 11.4201C7.30001 11.0701 7.51001 10.7201 7.73001 10.3901C9.89001 9.44006 12.14 8.70006 14.49 8.22006C16.55 7.79006 18.7 7.56006 20.92 7.56006C28.28 7.56006 35.08 10.0501 40.46 14.2501C40.98 14.6501 41.49 15.0801 41.99 15.5301C42 15.6801 42 15.8401 42 16.0001Z" fill="#6200EA"></path>
    <path d="M42 18.3699V22.9099L41.45 23.9699L40.4 26.0199L39.84 27.0999L39.33 28.0899L39.11 28.5199C39.11 28.8299 39.11 29.1299 39.09 29.4199C39.09 29.8499 39.07 30.2599 39.04 30.6399C39 31.0899 38.94 31.4999 38.88 31.8799C38.73 32.6699 38.52 33.3499 38.22 33.9099C38.18 33.9799 38.14 34.0499 38.1 34.1099C37.99 34.2899 37.86 34.4599 37.72 34.6199C37.54 34.8399 37.34 35.0299 37.11 35.1899C36.77 35.4499 36.37 35.6599 35.91 35.8199C35.34 36.0299 34.68 36.1699 33.9 36.2499C33.39 36.2999 32.83 36.3299 32.22 36.3299L31.8 36.3499L29.72 36.4699H29.71L27.5 36.5999L25.25 36.7299L22.15 36.9099L18.38 37.1299L17.83 37.1599C17.32 37.1599 16.84 37.1299 16.38 37.0699C16.33 37.0599 16.29 37.0499 16.24 37.0499C15.56 36.9399 14.94 36.7599 14.38 36.5099C13.7 36.2099 13.11 35.8099 12.61 35.3299C12.17 34.8999 11.79 34.4099 11.48 33.8599C11.41 33.7299 11.34 33.6099 11.28 33.4699C10.98 32.8799 10.74 32.2199 10.56 31.4999C10.53 31.3799 10.5 31.2499 10.48 31.1199C10.42 30.8899 10.37 30.6499 10.34 30.3999C10.23 29.7599 10.17 29.0799 10.14 28.3699V28.3599C10.13 28.0699 10.12 27.7899 10.12 27.4899L9.63 26.3199L9.56 26.1399L9.5 25.9899L8.75 24.1999L8.63 23.9099L7.91 22.1799L7.11 20.2499C7.11 20.2499 7.11 20.2499 7.1 20.2499L6.29 18.2999L6 17.5899V15.9999C6 15.3699 6.06 14.7499 6.17 14.1499C6.22 13.9199 6.27 13.6899 6.33 13.4699C7.18 12.9799 8.07 12.5299 8.98 12.1299C11.06 11.1999 13.29 10.5099 15.6 10.0899C17.32 9.77986 19.11 9.60986 20.92 9.60986C28.23 9.60986 34.86 12.2599 40.04 16.5799C40.24 16.7399 40.43 16.8999 40.62 17.0699C41.09 17.4799 41.55 17.9099 42 18.3699Z" fill="#673AB7"></path>
    <path d="M42 21.3499V26.4899L41.43 27.6799L40.35 29.9299L40.34 29.9599C40.34 30.3899 40.32 30.7799 40.29 31.1299C40.19 32.2799 39.91 33.0099 39.45 33.4599C39.12 33.7999 38.71 33.9899 38.2 34.0899C38.17 34.0999 38.13 34.0999 38.1 34.1099C37.94 34.1399 37.77 34.1599 37.59 34.1599C36.97 34.2199 36.24 34.1799 35.4 34.1199C35.31 34.1199 35.21 34.1099 35.11 34.0999C34.5 34.0599 33.85 34.0199 33.13 33.9899C32.74 33.9799 32.33 33.9699 31.91 33.9699H31.89L30.88 34.0499H30.87L28.6 34.2099L26.01 34.4099L25.63 34.4399L22.6 34.6599L21.03 34.7799L19.48 34.8899C19.21 34.8899 18.95 34.8899 18.69 34.8799C18.69 34.8799 18.68 34.8699 18.68 34.8799C17.55 34.8599 16.54 34.7899 15.64 34.6199C14.81 34.4799 14.08 34.2599 13.46 33.9299C12.82 33.6199 12.29 33.1799 11.86 32.6199C11.45 32.0699 11.15 31.3799 10.96 30.5499C10.96 30.5399 10.96 30.5399 10.96 30.5399C10.82 29.8699 10.74 29.0899 10.74 28.2099L10.59 27.9399L9.7 26.3499L9.57 26.1299L9.5 25.9899L8.57 24.3399L8.11 23.5099L7.53 22.4799L6.53 20.6899L6 19.7499V16.0699C6.88 15.4899 7.79 14.9799 8.73 14.5199C9.87 13.9399 11.05 13.4499 12.28 13.0499C13.62 12.6099 15.02 12.2599 16.45 12.0299C17.9 11.7899 19.39 11.6699 20.92 11.6699C27.72 11.6699 33.96 14.0999 38.77 18.1399C38.99 18.3099 39.2 18.4999 39.41 18.6799C40.25 19.4299 41.05 20.2399 41.78 21.0899C41.86 21.1799 41.94 21.2599 42 21.3499Z" fill="#8E24AA"></path>
    <path d="M42 24.7102V31.9402C41.76 31.8002 41.43 31.6302 41.02 31.4502C40.8 31.3402 40.55 31.2302 40.29 31.1302C39.91 30.9602 39.5 30.8002 39.04 30.6402C38.94 30.6002 38.84 30.5702 38.73 30.5402C38.55 30.4702 38.36 30.4102 38.17 30.3502C37.58 30.1702 36.93 30.0002 36.25 29.8502C35.99 29.8002 35.72 29.7502 35.45 29.7102C34.58 29.5602 33.65 29.4702 32.68 29.4602C32.6 29.4502 32.51 29.4502 32.43 29.4502L29.86 29.4702L26.36 29.4902H26.35L18.86 29.5502C16.48 29.5502 15.02 30.1202 14.14 30.3502C14.14 30.3502 14.13 30.3502 14.13 30.3602C13.2 30.6002 12.91 30.4502 12.83 28.8202C12.81 28.3702 12.8 27.7902 12.8 27.0802L12.24 26.6502L11.26 25.9102L10.66 25.4502L10.54 25.3602L8.88 24.1002L8.63 23.9102L8.11 23.5102L7.15 22.7902L6 21.9102V18.5102C6.1 18.4302 6.19 18.3602 6.29 18.3002C7.74 17.3002 9.29 16.4502 10.93 15.7602C12.39 15.1402 13.93 14.6502 15.51 14.3002C15.94 14.2102 16.38 14.1202 16.83 14.0602C18.16 13.8302 19.53 13.7202 20.92 13.7202C26.93 13.7202 32.45 15.8102 36.83 19.2702C37.49 19.7902 38.13 20.3402 38.73 20.9302C39.55 21.7102 40.32 22.5402 41.03 23.4202C41.17 23.6002 41.31 23.7802 41.45 23.9702C41.64 24.2102 41.82 24.4602 42 24.7102Z" fill="#C2185B"></path>
    <path d="M42 28.7198V31.9998C42 32.6498 41.94 33.2898 41.82 33.9098C41.64 34.8298 41.33 35.7098 40.91 36.5298C40.69 36.5798 40.44 36.5798 40.16 36.5398C39.53 36.4298 38.79 36.0998 37.99 35.6698C37.95 35.6598 37.91 35.6398 37.88 35.6198C37.63 35.4898 37.37 35.3498 37.11 35.1898C36.58 34.8998 36.02 34.5798 35.46 34.2798C35.34 34.2198 35.22 34.1598 35.11 34.0998C34.47 33.7698 33.81 33.4698 33.15 33.2398C33.15 33.2398 33.15 33.2398 33.14 33.2398C33 33.1898 32.85 33.1398 32.7 33.0998C32.13 32.9398 31.55 32.8398 30.99 32.8398L29.89 32.5198L25.02 31.1098C25.02 31.1098 25.02 31.1098 25.01 31.1098L22.02 30.2398H22.01L20.71 29.8598C16.95 29.8598 14.64 31.4598 13.52 30.8498C13.08 30.6198 12.82 30.0398 12.73 28.8998C12.7 28.5798 12.69 28.2198 12.69 27.7998L11.52 27.2298L11.47 27.2098H11.46L10.62 26.7898L9.7 26.3498L9.63 26.3198L9.46 26.2298L7.5 25.2798L6 24.5498V21.1198C6.17 20.9698 6.35 20.8298 6.53 20.6898C6.72 20.5398 6.91 20.3998 7.1 20.2498C7.11 20.2498 7.11 20.2498 7.11 20.2498C8.29 19.3998 9.54 18.6498 10.87 18.0298C12.42 17.2898 14.07 16.7198 15.78 16.3498C16.03 16.2898 16.29 16.2298 16.55 16.1898C17.97 15.9198 19.43 15.7798 20.92 15.7798C26.19 15.7798 31.03 17.4898 34.93 20.3698C36.06 21.2098 37.11 22.1398 38.07 23.1498C38.86 23.9798 39.59 24.8798 40.25 25.8198C40.3 25.8898 40.35 25.9598 40.4 26.0198C40.77 26.5598 41.11 27.1098 41.43 27.6798C41.64 28.0198 41.82 28.3698 42 28.7198Z" fill="#D81B60"></path>
    <path d="M41.82 33.9101C41.64 34.8301 41.33 35.7101 40.91 36.5301C40.72 36.9001 40.51 37.2501 40.28 37.5901C40.14 37.8001 39.99 38.0001 39.84 38.1901C39.48 38.0501 38.95 37.8501 38.3 37.6301C38.3 37.6301 38.3 37.6301 38.3 37.6201C37.81 37.4501 37.25 37.2701 36.65 37.1001C36.48 37.0501 36.31 37.0001 36.13 36.9501C35.42 36.7601 34.68 36.5901 33.96 36.4901C33.36 36.3901 32.77 36.3301 32.22 36.3301L31.76 36.2001H31.75L29.33 35.5001L27.84 35.0701L26.18 34.5901H26.17L25.63 34.4401L19.1 32.5601L17.22 32.0201L15.82 31.6901L13.54 31.1501L13.26 31.0801C13.26 31.0801 13.26 31.0801 13.25 31.0801L10.96 30.5501C10.96 30.5401 10.96 30.5401 10.96 30.5401L10.55 30.4501L10.34 30.4001L8.67 30.0101L8.48 29.9601L7.06 28.7901L6 27.9001V23.8201C6.37 23.4601 6.75 23.1201 7.15 22.7901C7.27 22.6801 7.4 22.5801 7.53 22.4801C7.65 22.3801 7.78 22.2801 7.91 22.1801C8.82 21.4901 9.78 20.8701 10.8 20.3401C12.1 19.6401 13.48 19.0801 14.93 18.6801C15.21 18.5901 15.49 18.5101 15.78 18.4501C17.42 18.0401 19.14 17.8301 20.92 17.8301C25.39 17.8301 29.55 19.1801 32.99 21.4901C34.7 22.6401 36.24 24.0201 37.54 25.5901C38.2 26.3801 38.8 27.2101 39.33 28.0901C39.38 28.1601 39.42 28.2201 39.46 28.2901C39.78 28.8201 40.08 29.3701 40.35 29.9301C40.6 30.4301 40.82 30.9301 41.02 31.4501C41.34 32.2501 41.6 33.0701 41.82 33.9101Z" fill="#F50057"></path>
    <path d="M40.28 37.5901C40.14 37.8001 39.99 38.0001 39.84 38.1901C39.4 38.7401 38.92 39.2401 38.38 39.6801C37.91 40.0701 37.41 40.4201 36.88 40.7201C36.68 40.6701 36.48 40.6101 36.27 40.5301C35.61 40.3001 34.92 39.9201 34.28 39.5201C33.32 38.9101 32.49 38.2501 32.12 37.9501C31.98 37.8301 31.91 37.7701 31.91 37.7701L30.21 37.6201L30 37.6001L27.8 37.4101L25.52 37.2101L22.15 36.9101L16.81 36.4401L16.79 36.4301L14.91 35.5201L13.01 34.6001L11.48 33.8601L11.15 33.7001L10.74 33.5001L9.32 32.8101L7.43 31.9001L6.84 31.6101L6 31.3501V26.8801C6.47 26.3201 6.97 25.7901 7.5 25.2801C7.84 24.9601 8.2 24.6401 8.57 24.3401C8.63 24.2901 8.69 24.2401 8.75 24.2001C8.79 24.1501 8.84 24.1201 8.88 24.1001C9.47 23.6201 10.09 23.1901 10.73 22.8001C11.47 22.3301 12.25 21.9101 13.06 21.5601C13.93 21.1701 14.84 20.8401 15.78 20.5901C17.41 20.1301 19.14 19.8901 20.92 19.8901C25 19.8901 28.77 21.1301 31.88 23.2601C33.87 24.6201 35.59 26.3401 36.95 28.3301C37.4 28.9701 37.8 29.6501 38.17 30.3501C38.3 30.6101 38.43 30.8701 38.54 31.1301C38.66 31.3801 38.77 31.6301 38.88 31.8801C39.09 32.4001 39.28 32.9201 39.45 33.4601C39.77 34.4601 40.01 35.4801 40.16 36.5401C40.21 36.8901 40.25 37.2401 40.28 37.5901Z" fill="#FF1744"></path>
    <path d="M38.39 39.4199C38.39 39.4999 38.39 39.5899 38.38 39.6799C37.91 40.0699 37.41 40.4199 36.88 40.7199C36.66 40.8399 36.44 40.9599 36.21 41.0599C35.98 41.1699 35.75 41.2699 35.51 41.3599C35.17 41.1799 34.71 40.9599 34.22 40.7499C33.53 40.4399 32.78 40.1599 32.2 40.0699C32.06 40.0399 31.93 40.0299 31.81 40.0299L30.17 39.8199H30.15L28.11 39.5499L26.05 39.2799L25.09 39.1599L17.53 38.1799C17.04 38.1799 16.52 38.1499 15.98 38.0799C15.32 38.0199 14.63 37.9199 13.94 37.7799C13.26 37.6599 12.57 37.4999 11.91 37.3299C11.22 37.1699 10.54 36.9799 9.91 36.7999C9.18 36.5799 8.5 36.3699 7.93 36.1799C7.46 36.0299 7.06 35.8899 6.75 35.7799C6.57 35.3499 6.42 34.8999 6.31 34.4399C6.1 33.6599 6 32.8399 6 31.9999V30.3299C6.32 29.7999 6.67 29.2799 7.06 28.7899C7.77 27.8499 8.58 26.9899 9.46 26.2299C9.49 26.1899 9.53 26.1599 9.56 26.1399L9.57 26.1299C9.88 25.8499 10.2 25.5999 10.54 25.3599C10.58 25.3199 10.62 25.2899 10.66 25.2599C10.82 25.1399 10.99 25.0199 11.17 24.9099C12.6 23.9399 14.18 23.1799 15.87 22.6699C17.47 22.1899 19.16 21.9399 20.92 21.9399C24.41 21.9399 27.67 22.9699 30.39 24.7299C32.4 26.0199 34.13 27.7199 35.45 29.7099C35.61 29.9399 35.76 30.1699 35.91 30.4099C36.6 31.5799 37.17 32.8399 37.59 34.1599C37.64 34.3099 37.68 34.4599 37.72 34.6199C37.8 34.8899 37.87 35.1699 37.93 35.4499C37.95 35.5199 37.97 35.5899 37.99 35.6699C38.13 36.2999 38.23 36.9599 38.3 37.6199C38.3 37.6299 38.3 37.6299 38.3 37.6299C38.36 38.2199 38.39 38.8199 38.39 39.4199Z" fill="#FF5722"></path>
    <path d="M36.33 39.42C36.33 39.77 36.31 40.15 36.27 40.53C36.25 40.71 36.23 40.89 36.21 41.06C35.98 41.17 35.75 41.27 35.51 41.36C35.06 41.53 34.6 41.67 34.13 41.77C33.81 41.84 33.48 41.9 33.15 41.93H33.14C32.83 41.74 32.47 41.51 32.1 41.25C31.43 40.78 30.73 40.25 30.17 39.82C30.16 39.81 30.16 39.81 30.15 39.8C29.56 39.35 29.14 39.01 29.14 39.01L28.08 39.05L26.04 39.12L25.09 39.16L21.27 39.3L18.04 39.42C17.83 39.43 17.58 39.43 17.27 39.42H17.26C16.84 39.41 16.34 39.38 15.79 39.33C15.15 39.28 14.45 39.22 13.74 39.15C13.05 39.07 12.35 38.99 11.68 38.91C10.94 38.83 10.24 38.74 9.64 38.66C9.17 38.6 8.76 38.55 8.43 38.51C8.15 38.19 7.9 37.86 7.66 37.5C7.3 36.96 6.99 36.39 6.75 35.78C6.57 35.35 6.42 34.9 6.31 34.44C6.6 33.55 6.98 32.71 7.43 31.9C7.79 31.24 8.21 30.61 8.67 30.01C9.12 29.42 9.61 28.87 10.14 28.37V28.36C10.29 28.21 10.44 28.07 10.59 27.94C10.87 27.68 11.16 27.44 11.46 27.21H11.47C11.48 27.19 11.49 27.19 11.5 27.18C11.74 26.99 11.99 26.82 12.24 26.65C13.72 25.64 15.39 24.89 17.19 24.45C18.38 24.16 19.63 24 20.92 24C23.46 24 25.86 24.61 27.97 25.71H27.98C29.79 26.64 31.39 27.92 32.68 29.46C33.39 30.28 34 31.18 34.5 32.13C34.85 32.77 35.15 33.44 35.4 34.12C35.42 34.18 35.44 34.23 35.46 34.28C35.63 34.78 35.78 35.3 35.91 35.82C36 36.19 36.07 36.57 36.13 36.95C36.15 37.07 36.17 37.18 36.18 37.3C36.28 37.99 36.33 38.7 36.33 39.42Z" fill="#FF6F00"></path>
    <path d="M34.28 39.4201V39.5201C34.28 39.8601 34.25 40.2901 34.22 40.7501C34.19 41.0901 34.16 41.4401 34.13 41.7701C33.81 41.8401 33.48 41.9001 33.15 41.9301H33.14C32.76 41.9801 32.39 42.0001 32 42.0001H30.25L29.87 41.8901L27.9 41.2901L25.9 40.6901L21.27 39.3001L19.27 38.7001C19.27 38.7001 18.44 39.0301 17.27 39.4201H17.26C16.81 39.5701 16.32 39.7301 15.8 39.8901C15.15 40.0801 14.46 40.2701 13.78 40.4201C13.08 40.5801 12.39 40.7001 11.77 40.7501C11.58 40.7701 11.39 40.7801 11.22 40.7801C10.66 40.4701 10.12 40.1001 9.63 39.6901C9.2 39.3301 8.8 38.9401 8.43 38.5101C8.15 38.1901 7.9 37.8601 7.66 37.5001C7.73 37.0501 7.81 36.6101 7.93 36.1801C8.23 34.9901 8.7 33.8501 9.32 32.8101C9.66 32.2201 10.04 31.6501 10.48 31.1201C10.49 31.0901 10.52 31.0601 10.55 31.0401C10.54 31.0301 10.55 31.0301 10.55 31.0301C10.68 30.8601 10.82 30.7001 10.96 30.5501C10.96 30.5401 10.96 30.5401 10.96 30.5401C11.37 30.1001 11.79 29.6801 12.25 29.2901C12.41 29.1601 12.56 29.0301 12.73 28.9001C12.76 28.8701 12.79 28.8501 12.83 28.8201C15.08 27.1001 17.89 26.0601 20.92 26.0601C24.36 26.0601 27.49 27.3501 29.86 29.4701C31 30.5001 31.97 31.7301 32.7 33.1001C32.76 33.2001 32.82 33.3101 32.87 33.4201C32.96 33.6001 33.05 33.7901 33.13 33.9901C33.46 34.7101 33.72 35.4701 33.9 36.2501C33.92 36.3301 33.94 36.4101 33.96 36.4901C34.04 36.8601 34.11 37.2401 34.16 37.6201C34.24 38.2101 34.28 38.8101 34.28 39.4201Z" fill="#FF9800"></path>
    <path d="M32.22 39.4199C32.22 39.6199 32.21 39.8399 32.2 40.0699C32.18 40.4399 32.15 40.8399 32.1 41.2499C32.08 41.4999 32.04 41.7499 32 41.9999H26.52L25.46 41.8299L21.32 41.1699L20.73 41.0799L19.38 40.8599C18.79 40.8599 17.51 41.1199 16.16 41.3699C15.45 41.4999 14.73 41.6399 14.08 41.7299C14 41.7399 13.92 41.7499 13.85 41.7599H13.84C13.14 41.6099 12.46 41.3799 11.82 41.0799C11.62 40.9899 11.42 40.8899 11.22 40.7799C10.66 40.4699 10.12 40.0999 9.62999 39.6899C9.61999 39.5699 9.60999 39.4699 9.60999 39.4199C9.60999 39.1599 9.61999 38.9099 9.63999 38.6599C9.67999 38.0199 9.76999 37.3999 9.90999 36.7999C10.13 35.8899 10.45 35.0099 10.88 34.1999C10.96 34.0299 11.05 33.8599 11.15 33.6999C11.19 33.6199 11.24 33.5499 11.28 33.4699C11.46 33.1799 11.66 32.8999 11.86 32.6199C12.28 32.0699 12.75 31.5499 13.25 31.0799C13.26 31.0799 13.26 31.0799 13.26 31.0799C13.3 31.0399 13.34 30.9999 13.38 30.9699C13.43 30.9299 13.47 30.8799 13.52 30.8499C13.72 30.6699 13.92 30.5099 14.13 30.3599C14.13 30.3499 14.14 30.3499 14.14 30.3499C16.03 28.9399 18.37 28.1099 20.92 28.1099C22.9 28.1099 24.74 28.6099 26.35 29.4899H26.36C27.74 30.2499 28.94 31.2799 29.89 32.5199C30.26 32.9999 30.59 33.5099 30.87 34.0499H30.88C30.93 34.1499 30.98 34.2499 31.03 34.3499C31.33 34.9399 31.57 35.5599 31.75 36.1999H31.76C31.77 36.2499 31.79 36.2999 31.8 36.3499C31.92 36.7799 32.02 37.2199 32.09 37.6699C32.1 37.7599 32.11 37.8599 32.12 37.9499C32.19 38.4299 32.22 38.9199 32.22 39.4199Z" fill="#FFC107"></path>
    <path d="M30.17 39.3099C30.17 39.4699 30.17 39.6399 30.15 39.7999V39.8099C30.15 39.8199 30.15 39.8199 30.15 39.8199C30.13 40.5399 30.03 41.2499 29.87 41.8899C29.87 41.9299 29.86 41.9599 29.84 41.9999H25.17L21.32 41.1699L20.81 41.0599L20.73 41.0799L16.46 41.9599L16.27 41.9999H16C15.36 41.9999 14.73 41.9399 14.12 41.8199C14.03 41.7999 13.94 41.7799 13.85 41.7599H13.84C13.14 41.6099 12.46 41.3799 11.82 41.0799C11.8 40.9699 11.78 40.8599 11.77 40.7499C11.7 40.3199 11.67 39.8699 11.67 39.4199C11.67 39.2499 11.67 39.0799 11.68 38.9099C11.71 38.3699 11.79 37.8399 11.91 37.3299C11.99 36.9499 12.1 36.5799 12.23 36.2299C12.34 35.9199 12.47 35.6199 12.61 35.3299C12.73 35.0799 12.87 34.8399 13.01 34.5999C13.15 34.3699 13.3 34.1499 13.46 33.9299C13.86 33.3799 14.33 32.8699 14.85 32.4199C15.15 32.1599 15.48 31.9099 15.82 31.6899C17.28 30.7299 19.03 30.1699 20.92 30.1699C21.29 30.1699 21.65 30.1899 22 30.2399H22.02C23.09 30.3599 24.09 30.6599 25.01 31.1099C25.02 31.1099 25.02 31.1099 25.02 31.1099C26.47 31.8199 27.7 32.8899 28.6 34.2099C28.75 34.4299 28.9 34.6699 29.03 34.9099C29.14 35.0999 29.24 35.2999 29.33 35.4999C29.47 35.8099 29.6 36.1399 29.71 36.4699H29.72C29.83 36.8399 29.93 37.2099 30 37.5999V37.6099C30.11 38.1599 30.17 38.7299 30.17 39.3099Z" fill="#FFD54F"></path>
    <path d="M28.11 39.5198V39.5498C28.11 40.1398 28.04 40.7198 27.9 41.2898C27.85 41.5298 27.78 41.7698 27.69 41.9998H23.21L20.92 41.3698L18.63 41.9998H16C15.36 41.9998 14.73 41.9398 14.12 41.8198C14.1 41.7898 14.09 41.7598 14.08 41.7298C13.94 41.2998 13.83 40.8698 13.78 40.4198C13.74 40.1298 13.72 39.8298 13.72 39.5198C13.72 39.3998 13.72 39.2698 13.74 39.1498C13.75 38.6798 13.82 38.2198 13.94 37.7798C14 37.4798 14.09 37.1898 14.21 36.9098C14.25 36.7698 14.31 36.6398 14.38 36.5098C14.53 36.1698 14.71 35.8398 14.91 35.5198C15.13 35.1998 15.37 34.8998 15.64 34.6198C15.96 34.2598 16.32 33.9298 16.73 33.6598C17.43 33.1498 18.23 32.7698 19.1 32.5598C19.68 32.3998 20.29 32.3198 20.92 32.3198C22.92 32.3198 24.71 33.1198 26.01 34.4098C26.06 34.4598 26.12 34.5198 26.17 34.5898H26.18C26.32 34.7398 26.45 34.8898 26.58 35.0598C26.95 35.5298 27.26 36.0398 27.5 36.5998C27.62 36.8598 27.72 37.1298 27.8 37.4098C27.81 37.4498 27.82 37.4798 27.83 37.5198C27.97 38.0098 28.06 38.5198 28.08 39.0498C28.1 39.1998 28.11 39.3598 28.11 39.5198Z" fill="#FFE082"></path>
    <path d="M26.06 39.5199C26.06 39.9299 26.01 40.3199 25.9 40.6899C25.8 41.0899 25.65 41.4699 25.46 41.8299C25.43 41.8899 25.36 41.9999 25.36 41.9999H16.48C16.47 41.9899 16.46 41.9699 16.46 41.9599C16.34 41.7699 16.24 41.5799 16.16 41.3699C15.96 40.9099 15.84 40.4099 15.8 39.8899C15.78 39.7699 15.78 39.6399 15.78 39.5199C15.78 39.4599 15.78 39.3899 15.79 39.3299C15.8 38.8899 15.86 38.4699 15.98 38.0799C16.08 37.7199 16.21 37.3899 16.38 37.0699C16.38 37.0699 16.39 37.0599 16.39 37.0499C16.51 36.8399 16.64 36.6299 16.79 36.4299C17.28 35.7699 17.93 35.2299 18.68 34.8799C18.69 34.8799 18.69 34.8799 18.69 34.8799C18.93 34.7599 19.18 34.6599 19.44 34.5899C19.44 34.5899 19.44 34.5899 19.45 34.5899C19.91 34.4499 20.41 34.3799 20.92 34.3799C21.51 34.3799 22.08 34.4699 22.6 34.6599C22.79 34.7099 22.97 34.7899 23.15 34.8799C23.15 34.8799 23.15 34.8799 23.16 34.8799C24.02 35.2899 24.75 35.9299 25.25 36.7299C25.35 36.8799 25.44 37.0399 25.52 37.2099C25.56 37.2799 25.6 37.3599 25.63 37.4299C25.86 37.9499 26 38.5199 26.04 39.1199C26.05 39.1699 26.05 39.2199 26.05 39.2799C26.06 39.3599 26.06 39.4399 26.06 39.5199Z" fill="#FFECB3"></path>
    <path d="M30 11H18C14.1 11 11 14.1 11 18V30C11 33.9 14.1 37 18 37H30C33.9 37 37 33.9 37 30V18C37 14.1 33.9 11 30 11Z" stroke="white" stroke-width="2" stroke-miterlimit="10" stroke-linecap="round" stroke-linejoin="round"></path>
    <path d="M31 17C31.5523 17 32 16.5523 32 16C32 15.4477 31.5523 15 31 15C30.4477 15 30 15.4477 30 16C30 16.5523 30.4477 17 31 17Z" fill="white"></path>
    <path d="M24 30C27.3137 30 30 27.3137 30 24C30 20.6863 27.3137 18 24 18C20.6863 18 18 20.6863 18 24C18 27.3137 20.6863 30 24 30Z" stroke="white" stroke-width="2" stroke-miterlimit="10" stroke-linecap="round" stroke-linejoin="round"></path>
  </symbol>
  <symbol fill="none" xmlns="http://www.w3.org/2000/svg" viewBox="0 0 48 48" id="social-linkedin">
    <path d="M42 37C42 39.762 39.762 42 37 42H11C8.239 42 6 39.762 6 37V11C6 8.238 8.239 6 11 6H37C39.762 6 42 8.238 42 11V37Z" fill="#0288D1"></path>
    <path d="M12 19H17V36H12V19ZM14.485 17H14.457C12.965 17 12 15.888 12 14.499C12 13.08 12.995 12 14.514 12C16.035 12 16.972 13.08 17 14.499C17 15.887 16.035 17 14.485 17ZM36 36H31V26.901C31 24.703 29.775 23.203 27.808 23.203C26.307 23.203 25.495 24.215 25.101 25.193C24.957 25.543 25 26.511 25 27V36H20V19H25V21.616C25.721 20.5 26.85 19 29.738 19C33.316 19 35.999 21.25 35.999 26.274L36 36Z" fill="white"></path>
  </symbol>
  <symbol fill="none" xmlns="http://www.w3.org/2000/svg" viewBox="0 0 48 48" id="social-twitter">
    <path d="M42 12.429C40.677 13.015 39.254 13.406 37.753 13.591C39.279 12.685 40.453 11.24 41.004 9.533C39.576 10.37 37.994 10.985 36.311 11.309C34.967 9.884 33.05 9 30.926 9C26.846 9 23.539 12.278 23.539 16.32C23.539 16.892 23.606 17.449 23.732 17.99C17.594 17.682 12.15 14.764 8.50801 10.336C7.86801 11.418 7.50801 12.685 7.50801 14.022C7.50801 16.563 8.80901 18.8 10.793 20.118C9.58201 20.081 8.44201 19.744 7.44401 19.204C7.44401 19.226 7.44401 19.259 7.44401 19.29C7.44401 22.841 9.99101 25.798 13.367 26.471C12.75 26.64 12.098 26.734 11.426 26.734C10.949 26.734 10.484 26.68 10.034 26.599C10.974 29.501 13.701 31.622 16.932 31.685C14.404 33.645 11.22 34.819 7.75801 34.819C7.16001 34.819 6.57501 34.785 5.99701 34.715C9.26801 36.786 13.152 38 17.321 38C30.906 38 38.338 26.844 38.338 17.166C38.338 16.849 38.328 16.533 38.313 16.221C39.763 15.197 41.013 13.905 42 12.429Z" fill="#03A9F4"></path>
  </symbol>
  <symbol fill="none" xmlns="http://www.w3.org/2000/svg" viewBox="0 0 48 48" id="social-youtube">
    <g clip-path="url(#clip0_75:65)">
      <path d="M38.2 35.9C37.8 38 36.1 39.6 34 39.9C30.7 40.4 25.2 41 19 41C12.9 41 7.4 40.4 4 39.9C1.9 39.6 0.2 38 -0.2 35.9C-0.6 33.6 -1 30.2 -1 26C-1 21.8 -0.6 18.4 -0.2 16.1C0.2 14 1.9 12.4 4 12.1C7.3 11.6 12.8 11 19 11C25.2 11 30.6 11.6 34 12.1C36.1 12.4 37.8 14 38.2 16.1C38.6 18.4 39.1 21.8 39.1 26C39 30.2 38.6 33.6 38.2 35.9Z" fill="#FF3D00"></path>
      <path d="M15 33V19L27 26L15 33Z" fill="white"></path>
    </g>
    <defs>
      <clipPath id="clip0_75:65">
        <rect width="48" height="48" fill="white"></rect>
      </clipPath>
    </defs>
  </symbol>
</svg>